<svg width="716" height="174" viewBox="0 0 716 174" fill="none" xmlns="http://www.w3.org/2000/svg">
<path d="M22.92 139C19.56 139 16.8 137.96 14.64 135.88C12.56 133.72 11.52 131.04 11.52 127.84V101.08C9.44 101.56 7.56 101.28 5.88 100.24C4.2 99.2 2.84 97.64 1.8 95.56C0.84 93.48 0.36 91.2 0.36 88.72C0.36 86.24 0.88 83.96 1.92 81.88C2.96 79.72 4.32 78.08 6 76.96C7.76 75.84 9.68 75.6 11.76 76.24C12.16 70.32 13.12 65.08 14.64 60.52C16.16 55.88 18.48 52.24 21.6 49.6C24.8 46.96 28.96 45.64 34.08 45.64C38.48 45.64 42 46.56 44.64 48.4C47.28 50.16 49.12 52.36 50.16 55C51.28 57.64 51.64 60.32 51.24 63.04C50.84 65.68 49.76 68 48 70C46.24 71.92 43.64 72.88 40.2 72.88C37.8 72.88 35.8 72.4 34.2 71.44C32.6 70.48 31.24 69.32 30.12 67.96C29.08 66.52 28.16 65.16 27.36 63.88C25.36 60.68 23.32 59.6 21.24 60.64C20.2 61.2 19.64 62.12 19.56 63.4C19.48 64.6 19.88 66 20.76 67.6L23.4 72.16C24.76 74.4 26.2 75.88 27.72 76.6C29.24 77.24 31.16 77.4 33.48 77.08L39.24 76.24C42.92 75.68 45.92 76.68 48.24 79.24C50.56 81.8 51.72 84.96 51.72 88.72C51.72 92.64 50.52 95.8 48.12 98.2C45.8 100.52 42.92 101.48 39.48 101.08L34.44 100.48V127.84C34.44 131.04 33.4 133.72 31.32 135.88C29.24 137.96 26.44 139 22.92 139ZM75.2916 139C69.6916 139 65.1316 136.88 61.6116 132.64C58.0916 128.4 56.2916 122.44 56.2116 114.76L56.0916 87.04C56.0916 83.6 57.1316 80.92 59.2116 79C61.3716 77 64.2916 76 67.9716 76C71.4916 76 74.3316 77 76.4916 79C78.6516 80.92 79.7316 83.6 79.7316 87.04V112.12C79.7316 118.12 82.0916 121.12 86.8116 121.12C89.1316 121.12 90.6916 120.28 91.4916 118.6C92.2916 116.84 92.6916 114.6 92.6916 111.88V87.04C92.6916 83.92 93.7716 81.32 95.9316 79.24C98.0916 77.08 100.892 76 104.332 76C107.932 76 110.692 77.08 112.612 79.24C114.612 81.32 115.612 83.92 115.612 87.04V126.4C115.612 130.24 114.732 133.32 112.972 135.64C111.292 137.88 108.532 139 104.692 139C100.932 139 97.9716 137.88 95.8116 135.64C93.7316 133.32 92.6916 130.24 92.6916 126.4V124.36H90.5316C90.5316 129 89.1316 132.6 86.3316 135.16C83.6116 137.72 79.9316 139 75.2916 139ZM133.474 139C129.954 139 127.114 137.96 124.954 135.88C122.874 133.72 121.834 131.08 121.834 127.96V88.24C121.834 84.88 122.834 82.04 124.834 79.72C126.834 77.4 129.714 76.24 133.474 76.24C137.154 76.24 139.954 77.4 141.874 79.72C143.794 82.04 144.754 84.96 144.754 88.48V94.48H146.914C146.914 89.92 147.714 86.32 149.314 83.68C150.994 81.04 153.114 79.16 155.674 78.04C158.234 76.84 160.794 76.24 163.354 76.24C169.514 76.24 174.034 78.48 176.914 82.96C179.794 87.36 181.234 93.64 181.234 101.8V127.96C181.234 131.08 180.194 133.72 178.114 135.88C176.034 137.96 173.234 139 169.714 139C166.114 139 163.234 137.96 161.074 135.88C158.994 133.72 157.954 131.08 157.954 127.96V106.72C157.954 103.84 157.394 101.6 156.274 100C155.234 98.4 153.674 97.6 151.594 97.6C149.194 97.6 147.434 98.48 146.314 100.24C145.274 102 144.754 104.24 144.754 106.96V127.96C144.754 131.08 143.754 133.72 141.754 135.88C139.754 137.96 136.994 139 133.474 139ZM215.419 163.72C210.539 163.72 206.379 163.2 202.939 162.16C199.579 161.12 196.339 159.52 193.219 157.36C190.499 155.44 188.579 152.76 187.459 149.32C186.339 145.88 186.899 142.4 189.139 138.88C190.579 136.72 192.179 135.24 193.939 134.44C195.779 133.64 197.539 133.32 199.219 133.48C200.979 133.56 202.499 133.92 203.779 134.56C206.579 135.92 208.739 136.92 210.259 137.56C211.859 138.12 213.659 138.4 215.659 138.4C218.619 138.4 221.099 137.36 223.099 135.28C225.179 133.2 226.219 130.28 226.219 126.52V116.8H224.059C223.499 121.04 221.859 124.4 219.139 126.88C216.499 129.28 212.859 130.48 208.219 130.48C204.699 130.48 201.259 129.6 197.899 127.84C194.539 126.08 191.779 123.28 189.619 119.44C187.459 115.6 186.379 110.52 186.379 104.2C186.379 94.92 188.419 88 192.499 83.44C196.579 78.88 201.859 76.6 208.339 76.6C212.819 76.6 216.659 78.12 219.859 81.16C223.059 84.12 224.659 88.28 224.659 93.64L225.019 93.52V86.8C225.019 84 225.899 81.56 227.659 79.48C229.499 77.32 232.339 76.24 236.179 76.24C240.259 76.24 243.179 77.32 244.939 79.48C246.779 81.56 247.699 84 247.699 86.8L247.819 124.6C247.899 132.92 246.859 140 244.699 145.84C242.619 151.68 239.179 156.12 234.379 159.16C229.659 162.2 223.339 163.72 215.419 163.72ZM206.539 102.16C206.539 106.48 209.419 108.64 215.179 108.64C218.939 108.64 221.579 108.12 223.099 107.08C224.619 106.04 225.379 104.4 225.379 102.16C225.379 99.84 224.579 98.24 222.979 97.36C221.459 96.48 218.819 96.04 215.059 96.04C212.339 96.04 210.219 96.48 208.699 97.36C207.259 98.24 206.539 99.84 206.539 102.16ZM253.424 62.32C253.424 58.88 254.464 56.12 256.544 54.04C258.704 51.88 261.664 50.8 265.424 50.8C269.424 50.8 272.384 51.84 274.304 53.92C276.304 56 277.304 58.76 277.304 62.2C277.304 65.56 276.304 68.28 274.304 70.36C272.384 72.36 269.424 73.36 265.424 73.36C261.504 73.36 258.504 72.36 256.424 70.36C254.424 68.28 253.424 65.6 253.424 62.32ZM265.424 139C261.664 139 258.864 137.96 257.024 135.88C255.184 133.8 254.264 131.2 254.264 128.08V87.04C254.264 83.6 255.184 80.88 257.024 78.88C258.864 76.88 261.664 75.88 265.424 75.88C269.184 75.88 271.984 76.88 273.824 78.88C275.744 80.88 276.704 83.52 276.704 86.8V128.08C276.704 131.2 275.704 133.8 273.704 135.88C271.784 137.96 269.024 139 265.424 139ZM410.811 139C407.451 139 404.691 137.96 402.531 135.88C400.451 133.72 399.411 131.04 399.411 127.84V101.08C397.331 101.56 395.451 101.28 393.771 100.24C392.091 99.12 390.731 97.52 389.691 95.44C388.731 93.28 388.251 90.96 388.251 88.48C388.251 86 388.771 83.72 389.811 81.64C390.851 79.56 392.211 78 393.891 76.96C395.651 75.84 397.571 75.6 399.651 76.24C400.051 70.32 401.411 65.08 403.731 60.52C406.051 55.88 409.531 52.24 414.171 49.6C418.891 46.96 424.931 45.64 432.291 45.64C437.571 45.64 441.811 46.48 445.011 48.16C448.211 49.76 450.491 51.84 451.851 54.4C453.291 56.96 453.811 59.72 453.411 62.68C453.091 65.64 451.811 68.16 449.571 70.24C447.411 72.24 444.811 73.28 441.771 73.36C439.131 73.36 436.811 72.88 434.811 71.92C432.891 70.96 431.211 69.76 429.771 68.32C428.411 66.8 427.211 65.32 426.171 63.88C424.731 61.8 422.971 60.28 420.891 59.32C418.811 58.36 416.731 58.44 414.651 59.56C412.571 60.68 411.371 62.2 411.051 64.12C410.731 65.96 411.011 67.8 411.891 69.64C414.291 74.12 417.811 76.96 422.451 78.16C426.211 79.12 429.771 79.48 433.131 79.24C436.571 79 440.131 78.88 443.811 78.88C447.091 78.88 449.771 80.08 451.851 82.48C454.011 84.8 455.091 87.6 455.091 90.88V128.08C455.091 131.2 454.091 133.8 452.091 135.88C450.171 137.96 447.411 139 443.811 139C440.051 139 437.251 137.96 435.411 135.88C433.571 133.8 432.651 131.2 432.651 128.08V100.48C429.211 99.44 425.771 99.44 422.331 100.48V127.84C422.331 131.04 421.291 133.72 419.211 135.88C417.131 137.96 414.331 139 410.811 139ZM472.614 139C469.094 139 466.254 137.96 464.094 135.88C462.014 133.72 460.974 131.08 460.974 127.96V88.24C460.974 84.88 461.974 82.04 463.974 79.72C465.974 77.4 468.854 76.24 472.614 76.24C476.294 76.24 479.094 77.4 481.014 79.72C482.934 82.04 483.894 84.96 483.894 88.48V94.48H486.054C486.054 89.92 486.854 86.32 488.454 83.68C490.134 81.04 492.254 79.16 494.814 78.04C497.374 76.84 499.934 76.24 502.494 76.24C508.654 76.24 513.174 78.48 516.054 82.96C518.934 87.36 520.374 93.64 520.374 101.8V127.96C520.374 131.08 519.334 133.72 517.254 135.88C515.174 137.96 512.374 139 508.854 139C505.254 139 502.374 137.96 500.214 135.88C498.134 133.72 497.094 131.08 497.094 127.96V106.72C497.094 103.84 496.534 101.6 495.414 100C494.374 98.4 492.814 97.6 490.734 97.6C488.334 97.6 486.574 98.48 485.454 100.24C484.414 102 483.894 104.24 483.894 106.96V127.96C483.894 131.08 482.894 133.72 480.894 135.88C478.894 137.96 476.134 139 472.614 139ZM547.959 139C533.399 139 526.119 128.28 526.119 106.84C526.119 97.56 527.919 90.16 531.519 84.64C535.119 79.04 540.519 76.24 547.719 76.24C551.639 76.24 554.799 77.04 557.199 78.64C559.679 80.24 561.599 82.44 562.959 85.24C564.399 87.96 565.439 91.12 566.079 94.72L566.439 94.6V58.24C566.439 54.96 567.399 52.2 569.319 49.96C571.319 47.64 574.199 46.48 577.959 46.48C581.639 46.48 584.359 47.64 586.119 49.96C587.959 52.2 588.879 55.04 588.879 58.48V112.48C588.879 115.2 589.079 117.72 589.479 120.04C589.959 122.28 590.319 124.52 590.559 126.76C590.799 129.8 590.159 132.44 588.639 134.68C587.199 136.84 584.599 138.24 580.839 138.88C575.959 139.68 572.319 138.84 569.919 136.36C567.599 133.88 566.439 130.2 566.439 125.32V120.88H564.159C564.159 126.72 562.679 131.2 559.719 134.32C556.839 137.44 552.919 139 547.959 139ZM546.159 105.76C546.159 108.24 546.919 110.08 548.439 111.28C549.959 112.48 552.679 113.08 556.599 113.08C560.599 113.08 563.359 112.48 564.879 111.28C566.399 110.08 567.159 108.24 567.159 105.76C567.159 103.2 566.399 101.36 564.879 100.24C563.439 99.04 560.719 98.44 556.719 98.44C552.719 98.44 549.959 99.04 548.439 100.24C546.919 101.36 546.159 103.2 546.159 105.76ZM595.846 107.8C595.846 101.48 597.086 95.92 599.566 91.12C602.126 86.32 605.726 82.56 610.366 79.84C615.086 77.12 620.686 75.76 627.166 75.76C632.206 75.76 636.726 76.68 640.726 78.52C644.806 80.36 648.006 82.84 650.326 85.96C652.646 89 653.806 92.36 653.806 96.04C653.806 99.88 652.686 102.6 650.446 104.2C648.206 105.8 644.886 106.6 640.486 106.6H615.286C615.286 108.68 616.086 110.4 617.686 111.76C619.366 113.12 622.166 113.8 626.086 113.8C628.086 113.8 629.926 113.6 631.606 113.2C633.366 112.8 635.126 112.44 636.886 112.12C638.726 111.72 640.766 111.52 643.006 111.52C646.206 111.52 648.846 112.68 650.926 115C653.006 117.24 654.046 120.36 654.046 124.36C654.046 129.08 651.606 132.76 646.726 135.4C641.926 138.04 635.606 139.36 627.766 139.36C622.246 139.36 617.046 138.28 612.166 136.12C607.366 133.96 603.446 130.56 600.406 125.92C597.366 121.2 595.846 115.16 595.846 107.8ZM634.726 102.64C635.926 102.64 636.326 102.08 635.926 100.96C635.606 99.84 634.646 98.68 633.046 97.48C631.446 96.28 629.126 95.68 626.086 95.68C622.566 95.68 619.926 96.44 618.166 97.96C616.486 99.48 615.646 101.04 615.646 102.64H634.726ZM672.425 139C668.665 139 665.745 137.92 663.665 135.76C661.585 133.6 660.545 130.88 660.545 127.6V88.24C660.545 84.8 661.585 81.96 663.665 79.72C665.745 77.4 668.665 76.24 672.425 76.24C676.185 76.24 679.065 77.4 681.065 79.72C683.065 81.96 684.065 84.72 684.065 88V90.52H686.345C686.665 86.28 688.265 82.8 691.145 80.08C694.025 77.36 697.425 76 701.345 76C705.265 76 708.345 77.2 710.585 79.6C712.905 82 714.065 85.2 714.065 89.2C714.065 92.96 712.985 96.08 710.825 98.56C708.665 101.04 705.905 102.28 702.545 102.28C699.745 102.28 697.385 101.64 695.465 100.36C693.625 99 692.265 97.44 691.385 95.68C688.825 95.36 686.945 95.64 685.745 96.52C684.625 97.32 684.065 98.96 684.065 101.44V127.6C684.065 130.88 683.065 133.6 681.065 135.76C679.065 137.92 676.185 139 672.425 139Z" fill="#243438"/>
<path d="M314.585 130.262L322.685 107.836H339.139L346.365 129.984C348.158 134.326 345.031 139.125 340.412 139.125H320.644C316.151 139.125 313.034 134.561 314.585 130.262Z" fill="url(#paint0_linear_208_20902)"/>
<path d="M314.585 130.262L322.685 107.836H339.139L346.365 129.984C348.158 134.326 345.031 139.125 340.412 139.125H320.644C316.151 139.125 313.034 134.561 314.585 130.262Z" fill="url(#paint1_linear_208_20902)"/>
<path d="M314.585 130.262L322.685 107.836H339.139L346.365 129.984C348.158 134.326 345.031 139.125 340.412 139.125H320.644C316.151 139.125 313.034 134.561 314.585 130.262Z" fill="url(#paint2_linear_208_20902)"/>
<path d="M314.585 130.262L322.685 107.836H339.139L346.365 129.984C348.158 134.326 345.031 139.125 340.412 139.125H320.644C316.151 139.125 313.034 134.561 314.585 130.262Z" fill="url(#paint3_radial_208_20902)"/>
<path d="M292 99.7606C292 92.4284 294.035 85.5678 297.578 79.7182L309.765 73.9202L320.289 62.4309C323.698 61.4785 327.221 60.9971 330.761 61C336.013 61 341.019 62.0433 345.587 63.9394L354.986 81.9953L369.376 96.3884C369.473 97.4996 369.521 98.6236 369.521 99.7606V106.221C369.521 107.934 368.841 109.577 367.629 110.789C366.418 112 364.774 112.681 363.061 112.681H298.46C296.747 112.681 295.104 112 293.892 110.789C292.681 109.577 292 107.934 292 106.221V99.7606Z" fill="url(#paint4_radial_208_20902)"/>
<path d="M292 99.7606C292 92.4284 294.035 85.5678 297.578 79.7182L309.765 73.9202L320.289 62.4309C323.698 61.4785 327.221 60.9971 330.761 61C336.013 61 341.019 62.0433 345.587 63.9394L354.986 81.9953L369.376 96.3884C369.473 97.4996 369.521 98.6236 369.521 99.7606V106.221C369.521 107.934 368.841 109.577 367.629 110.789C366.418 112 364.774 112.681 363.061 112.681H298.46C296.747 112.681 295.104 112 293.892 110.789C292.681 109.577 292 107.934 292 106.221V99.7606Z" fill="url(#paint5_radial_208_20902)"/>
<path d="M292 99.7606C292 92.4284 294.035 85.5678 297.578 79.7182L309.765 73.9202L320.289 62.4309C323.698 61.4785 327.221 60.9971 330.761 61C336.013 61 341.019 62.0433 345.587 63.9394L354.986 81.9953L369.376 96.3884C369.473 97.4996 369.521 98.6236 369.521 99.7606V106.221C369.521 107.934 368.841 109.577 367.629 110.789C366.418 112 364.774 112.681 363.061 112.681H298.46C296.747 112.681 295.104 112 293.892 110.789C292.681 109.577 292 107.934 292 106.221V99.7606Z" fill="url(#paint6_radial_208_20902)"/>
<path d="M292 99.7606C292 92.4284 294.035 85.5678 297.578 79.7182L309.765 73.9202L320.289 62.4309C323.698 61.4785 327.221 60.9971 330.761 61C336.013 61 341.019 62.0433 345.587 63.9394L354.986 81.9953L369.376 96.3884C369.473 97.4996 369.521 98.6236 369.521 99.7606V106.221C369.521 107.934 368.841 109.577 367.629 110.789C366.418 112 364.774 112.681 363.061 112.681H298.46C296.747 112.681 295.104 112 293.892 110.789C292.681 109.577 292 107.934 292 106.221V99.7606Z" fill="url(#paint7_radial_208_20902)"/>
<path d="M292 99.7606C292 92.4284 294.035 85.5678 297.578 79.7182L309.765 73.9202L320.289 62.4309C323.698 61.4785 327.221 60.9971 330.761 61C336.013 61 341.019 62.0433 345.587 63.9394L354.986 81.9953L369.376 96.3884C369.473 97.4996 369.521 98.6236 369.521 99.7606V106.221C369.521 107.934 368.841 109.577 367.629 110.789C366.418 112 364.774 112.681 363.061 112.681H298.46C296.747 112.681 295.104 112 293.892 110.789C292.681 109.577 292 107.934 292 106.221V99.7606Z" fill="url(#paint8_radial_208_20902)"/>
<path d="M320.392 62.4023C320.56 63.3391 320.65 64.3081 320.65 65.2965C320.65 74.1468 313.447 81.3175 304.597 81.3498C302.163 81.3497 299.762 80.7905 297.578 79.7154C302.699 71.25 310.858 65.0578 320.389 62.4023H320.392Z" fill="#FFBCBD"/>
<path d="M320.392 62.4023C320.56 63.3391 320.65 64.3081 320.65 65.2965C320.65 74.1468 313.447 81.3175 304.597 81.3498C302.163 81.3497 299.762 80.7905 297.578 79.7154C302.699 71.25 310.858 65.0578 320.389 62.4023H320.392Z" fill="url(#paint9_radial_208_20902)"/>
<path d="M345.533 63.9131C343.118 67.4635 341.831 71.6606 341.841 75.9547C341.842 79.2905 342.622 82.5798 344.119 85.5607C345.617 88.5417 347.789 91.1318 350.464 93.1247C353.139 95.1177 356.242 96.4584 359.527 97.0401C362.812 97.6218 366.187 97.4284 369.384 96.4752C368.146 81.7236 358.65 69.3234 345.533 63.9131Z" fill="#FFE1E9"/>
<path d="M345.533 63.9131C343.118 67.4635 341.831 71.6606 341.841 75.9547C341.842 79.2905 342.622 82.5798 344.119 85.5607C345.617 88.5417 347.789 91.1318 350.464 93.1247C353.139 95.1177 356.242 96.4584 359.527 97.0401C362.812 97.6218 366.187 97.4284 369.384 96.4752C368.146 81.7236 358.65 69.3234 345.533 63.9131Z" fill="url(#paint10_radial_208_20902)"/>
<path d="M327.338 103.12C329.685 103.12 331.936 102.188 333.596 100.528C335.256 98.8681 336.188 96.617 336.188 94.2698C336.188 91.9225 335.256 89.6714 333.596 88.0116C331.936 86.3519 329.685 85.4194 327.338 85.4194C324.99 85.4194 322.739 86.3519 321.08 88.0116C319.42 89.6714 318.487 91.9225 318.487 94.2698C318.487 96.617 319.42 98.8681 321.08 100.528C322.739 102.188 324.99 103.12 327.338 103.12Z" fill="url(#paint11_radial_208_20902)"/>
<path d="M398.098 96.9426C396.748 98.2838 395.254 98.9667 394.754 98.4645L366.111 69.7403C365.613 69.2399 366.297 67.744 367.647 66.3968C368.995 65.0553 370.496 64.3688 370.993 64.8742L399.634 93.5991C400.131 94.0989 399.444 95.6014 398.099 96.9457" fill="#243438"/>
<path d="M384.125 53.0896C388.471 65.597 381.85 79.2412 369.357 83.5821C356.862 87.9237 343.209 81.3242 338.863 68.8169C334.517 56.3095 341.136 42.666 353.631 38.3244C366.124 33.9835 379.779 40.5822 384.125 53.0896Z" fill="#243438"/>
<path d="M381.827 53.8883C385.73 65.1198 379.782 77.3807 368.559 81.2805C357.334 85.1806 345.068 79.2484 341.166 68.0169C337.262 56.7813 343.208 44.5256 354.432 40.6255C365.655 36.7258 377.923 42.6526 381.827 53.8883Z" fill="#30434A"/>
<path d="M379.595 54.6643C383.069 64.6616 377.777 75.5744 367.785 79.0464C357.797 82.5169 346.876 77.2363 343.403 67.24C339.928 57.2405 345.222 46.3281 355.21 42.8575C365.202 39.3856 376.12 44.6648 379.595 54.6643Z" fill="#1E75BB"/>
<path d="M367.005 76.8161C375.766 73.7721 380.4 64.2025 377.356 55.442C374.312 46.6814 364.742 42.0472 355.982 45.0913C347.221 48.1353 342.587 57.7049 345.631 66.4655C348.675 75.226 358.244 79.8602 367.005 76.8161Z" fill="#57C6E9"/>
<path d="M348.163 50.6959C346.466 52.9015 345.346 55.4947 344.901 58.2417C344.457 60.9887 344.704 63.803 345.619 66.4309C348.663 75.1899 358.232 79.8258 366.993 76.7816C367.148 76.7279 367.296 76.6531 367.449 76.5952C349.209 74.2892 347.488 56.939 348.163 50.6959Z" fill="#27A8E0"/>
<defs>
<linearGradient id="paint0_linear_208_20902" x1="330.528" y1="105.904" x2="330.528" y2="139.129" gradientUnits="userSpaceOnUse">
<stop stop-color="#F4869C"/>
<stop offset="0.272" stop-color="#FA89A2"/>
<stop offset="0.426" stop-color="#FFAAAD"/>
<stop offset="0.709" stop-color="#FFBDAF"/>
<stop offset="0.882" stop-color="#FFB6C3"/>
<stop offset="1" stop-color="#FF92C0"/>
</linearGradient>
<linearGradient id="paint1_linear_208_20902" x1="314.181" y1="127.194" x2="318.448" y2="128.731" gradientUnits="userSpaceOnUse">
<stop stop-color="#DB937A"/>
<stop offset="1" stop-color="#E39A81" stop-opacity="0"/>
</linearGradient>
<linearGradient id="paint2_linear_208_20902" x1="348.729" y1="119.748" x2="341.258" y2="123.482" gradientUnits="userSpaceOnUse">
<stop offset="0.389" stop-color="#D26982"/>
<stop offset="1" stop-color="#DC7388" stop-opacity="0"/>
</linearGradient>
<radialGradient id="paint3_radial_208_20902" cx="0" cy="0" r="1" gradientUnits="userSpaceOnUse" gradientTransform="translate(337.424 128.227) rotate(87.2073) scale(8.28684 15.1524)">
<stop stop-color="#FFD2BA"/>
<stop offset="1" stop-color="#FFD6C1" stop-opacity="0"/>
</radialGradient>
<radialGradient id="paint4_radial_208_20902" cx="0" cy="0" r="1" gradientUnits="userSpaceOnUse" gradientTransform="translate(330.761 92.0892) rotate(90) scale(49.662 50.5409)">
<stop offset="0.547" stop-color="#FF465A"/>
<stop offset="1" stop-color="#AF1816"/>
</radialGradient>
<radialGradient id="paint5_radial_208_20902" cx="0" cy="0" r="1" gradientUnits="userSpaceOnUse" gradientTransform="translate(341.866 86.8404) rotate(111.922) scale(17.8443 19.0286)">
<stop stop-color="#FF6783"/>
<stop offset="1" stop-color="#FF6783" stop-opacity="0"/>
</radialGradient>
<radialGradient id="paint6_radial_208_20902" cx="0" cy="0" r="1" gradientUnits="userSpaceOnUse" gradientTransform="translate(338.028 75.939) rotate(81.3359) scale(42.8838 111.9)">
<stop offset="0.595" stop-color="#FB3E7B" stop-opacity="0"/>
<stop offset="0.958" stop-color="#CF2FAA"/>
</radialGradient>
<radialGradient id="paint7_radial_208_20902" cx="0" cy="0" r="1" gradientUnits="userSpaceOnUse" gradientTransform="translate(307.546 98.1456) rotate(36.1932) scale(20.5122 21.9545)">
<stop stop-color="#FF5152"/>
<stop offset="0.544" stop-color="#FE5152" stop-opacity="0"/>
</radialGradient>
<radialGradient id="paint8_radial_208_20902" cx="0" cy="0" r="1" gradientUnits="userSpaceOnUse" gradientTransform="translate(309.565 71.2974) rotate(65.8545) scale(25.6631 25.0617)">
<stop stop-color="#FF3942"/>
<stop offset="0.756" stop-color="#FF3A43" stop-opacity="0"/>
</radialGradient>
<radialGradient id="paint9_radial_208_20902" cx="0" cy="0" r="1" gradientUnits="userSpaceOnUse" gradientTransform="translate(315.217 77.3542) rotate(144.597) scale(29.9685 16.462)">
<stop offset="0.136" stop-color="#FFBDC0"/>
<stop offset="0.562" stop-color="#E8A7A1"/>
<stop offset="0.795" stop-color="#BB867E"/>
</radialGradient>
<radialGradient id="paint10_radial_208_20902" cx="0" cy="0" r="1" gradientUnits="userSpaceOnUse" gradientTransform="translate(343.884 88.6566) rotate(41.561) scale(34.0815 26.808)">
<stop offset="0.05" stop-color="#FFE0EA"/>
<stop offset="0.636" stop-color="#FFE0DE"/>
<stop offset="0.888" stop-color="#FFBFBB"/>
<stop offset="1" stop-color="#F5BCAE"/>
</radialGradient>
<radialGradient id="paint11_radial_208_20902" cx="0" cy="0" r="1" gradientUnits="userSpaceOnUse" gradientTransform="translate(333.792 94.2706) rotate(159.141) scale(20.5235)">
<stop stop-color="#FFCDEB"/>
<stop offset="0.728" stop-color="#FFB8D9"/>
</radialGradient>
</defs>
</svg>
